<?xml version="1.0" standalone="no"?>
<!DOCTYPE svg PUBLIC "-//W3C//DTD SVG 20010904//EN"
 "http://www.w3.org/TR/2001/REC-SVG-20010904/DTD/svg10.dtd">
<svg version="1.0" xmlns="http://www.w3.org/2000/svg"
 width="1408.000000pt" height="768.000000pt" viewBox="0 0 1408.000000 768.000000"
 preserveAspectRatio="xMidYMid meet">
<metadata>
Created by potrace 1.16, written by Peter Selinger 2001-2019
</metadata>
<g transform="translate(0.000000,768.000000) scale(0.100000,-0.100000)"
fill="#000000" stroke="none">
<path d="M5400 5886 l0 -566 130 0 130 0 0 435 0 435 523 0 c594 0 632 -4 790
-78 258 -121 429 -320 507 -593 31 -106 38 -307 16 -419 -64 -313 -282 -570
-578 -680 -130 -48 -154 -50 -670 -50 l-488 0 0 -839 0 -839 125 -1 125 -2 2
708 3 708 400 6 c434 6 446 8 599 69 172 68 281 139 404 262 113 114 162 183
232 323 65 132 105 272 116 406 l7 79 400 0 400 0 185 186 185 186 92 -92 92
-91 60 -3 c56 -2 62 -4 100 -44 35 -37 45 -42 85 -42 107 0 158 126 78 194
-59 49 -118 43 -167 -18 -26 -33 -32 -36 -81 -36 -53 0 -53 0 -133 79 -43 44
-79 85 -79 92 0 7 30 41 67 76 l68 63 128 0 c126 0 129 0 150 -26 46 -55 57
-63 96 -74 147 -39 223 174 86 240 -51 25 -59 25 -113 0 -31 -14 -47 -29 -58
-55 l-14 -35 -153 0 -152 0 -275 -275 -275 -275 -385 0 -386 0 -12 108 c-7 59
-15 119 -18 135 l-6 27 399 0 399 0 284 285 285 285 81 0 c76 0 81 -1 92 -24
19 -41 62 -61 124 -57 30 2 77 51 84 88 24 128 -151 189 -211 73 -15 -30 -16
-30 -103 -30 l-87 0 -285 -285 -285 -285 -397 0 -396 0 -13 38 c-90 276 -323
543 -587 672 -88 42 -175 74 -271 97 -57 14 -162 17 -758 20 l-693 4 0 -565z"/>
<path d="M4745 5574 c-33 -20 -63 -41 -67 -48 -4 -6 -8 -41 -8 -77 0 -74 1
-75 86 -126 l51 -31 42 24 c79 45 102 65 99 88 -3 18 2 21 42 24 l45 3 110
-111 110 -110 72 0 73 0 0 -70 0 -70 130 0 129 0 3 66 3 67 345 1 345 1 3 -26
c2 -20 -12 -40 -67 -97 l-71 -72 -579 0 c-563 0 -579 1 -584 19 -5 21 -92 80
-117 81 -8 0 -38 -15 -65 -33 l-50 -32 -3 -61 c-3 -67 1 -73 76 -114 l42 -24
43 24 c56 31 68 41 76 64 7 18 18 19 139 20 73 1 132 0 132 -2 0 -2 -52 -54
-115 -117 l-115 -115 -220 0 c-214 0 -220 1 -220 20 0 14 -18 32 -55 55 -30
19 -58 35 -64 35 -5 0 -34 -14 -65 -32 l-56 -32 0 -67 0 -67 60 -36 61 -35 48
29 c26 17 53 30 60 30 6 0 11 11 11 25 l0 25 232 0 233 0 137 137 138 138 0
-140 0 -140 142 143 142 142 275 0 276 0 77 76 76 77 99 -57 c55 -31 103 -56
107 -56 4 0 59 30 122 67 l114 67 0 133 0 132 -111 66 c-61 36 -118 65 -127
65 -10 -1 -64 -29 -122 -63 l-105 -63 -3 -67 -3 -67 -543 0 -543 0 -107 110
-107 110 -53 0 c-50 0 -54 2 -59 28 -5 24 -56 61 -137 99 -3 2 -32 -13 -65
-33z m106 -60 c28 -14 30 -19 27 -62 -3 -40 -7 -48 -35 -65 -32 -19 -33 -19
-68 3 -32 20 -35 26 -35 66 0 41 3 46 33 59 41 18 42 18 78 -1z"/>
<path d="M8696 5251 l-28 -29 94 -21 c51 -12 140 -32 198 -46 58 -13 175 -40
260 -60 85 -20 158 -41 162 -48 4 -7 8 -29 8 -49 0 -34 -3 -38 -24 -38 -14 0
-154 20 -313 45 -751 116 -661 106 -938 103 l-250 -3 -11 -65 c-6 -36 -15 -80
-19 -97 l-7 -33 253 0 c140 0 295 -5 344 -10 50 -5 266 -30 480 -54 215 -25
409 -47 432 -48 l42 -3 3 -164 3 -163 -100 6 c-96 7 -389 32 -715 61 -99 9
-293 14 -537 15 l-381 0 -35 -47 c-20 -27 -56 -68 -81 -93 -25 -24 -46 -48
-46 -52 0 -4 209 -8 464 -8 363 0 525 -4 743 -20 153 -11 350 -24 438 -30 88
-6 179 -13 203 -16 l42 -5 0 -164 0 -165 -112 6 c-126 6 -400 20 -673 34 -99
5 -302 10 -450 10 l-270 0 -94 -94 -93 -93 434 -6 c238 -4 568 -11 733 -16
165 -6 351 -11 413 -12 l112 -1 0 -169 0 -169 -132 -1 c-73 -1 -807 0 -1630 1
l-1498 2 0 -101 0 -101 1263 0 c747 0 1410 5 1625 11 199 7 364 10 367 8 2 -3
5 -95 5 -204 l2 -200 -826 -2 -826 -3 0 91 c0 94 -14 141 -45 153 -9 3 -136 6
-281 6 l-265 0 -24 -25 c-23 -22 -25 -31 -25 -125 l0 -101 -485 3 -485 3 0
-80 0 -80 1703 2 c936 2 1732 3 1770 3 l67 0 0 75 0 75 -100 0 -100 0 0 1133
0 1133 -187 43 c-104 23 -246 56 -318 72 -71 16 -146 34 -166 39 -53 15 -63
13 -93 -19z"/>
<path d="M5535 4710 l-120 -120 -125 0 -125 0 -76 -76 -76 -75 -47 23 -47 22
-52 -28 c-87 -48 -88 -50 -85 -135 l3 -75 67 -39 67 -38 70 38 71 38 0 82 0
81 66 66 66 66 104 0 104 0 0 -845 0 -845 -180 0 -180 0 0 -78 0 -79 308 5
c169 2 308 5 310 6 1 2 1 481 0 1065 l-3 1061 -120 -120z m-580 -317 c33 -16
35 -20 35 -64 0 -39 -4 -49 -25 -63 -13 -9 -34 -16 -45 -16 -11 0 -32 7 -45
16 -21 14 -25 24 -25 63 0 43 3 49 33 64 17 8 33 16 34 16 1 1 18 -7 38 -16z"/>
<path d="M6120 3920 l0 -80 523 0 523 0 72 73 c39 39 75 75 78 80 4 4 -263 7
-594 7 l-602 0 0 -80z"/>
<path d="M7452 3907 c-50 -51 -92 -95 -92 -97 0 -3 25 -3 55 -2 54 4 54 4 144
98 l89 94 -51 0 -52 0 -93 -93z"/>
<path d="M3808 2263 c-17 -3 -30 -12 -34 -26 -3 -12 -51 -123 -105 -247 -55
-123 -102 -233 -105 -245 -5 -19 0 -20 57 -20 l63 0 22 55 22 55 128 0 129 0
19 -52 c18 -52 19 -53 60 -54 22 0 53 -2 69 -3 15 -1 27 0 27 1 0 2 -54 123
-119 270 l-119 268 -44 1 c-23 1 -55 -1 -70 -3z m90 -225 c18 -43 32 -83 32
-90 0 -10 -20 -12 -79 -10 l-79 3 33 84 c39 99 45 109 54 98 4 -4 22 -43 39
-85z"/>
<path d="M5030 2140 l-119 -125 -1 123 0 122 -60 0 -60 0 0 -265 0 -265 60 0
60 0 0 63 c0 57 3 65 35 100 20 21 39 37 44 35 5 -2 43 -47 85 -100 l76 -96
75 -4 c41 -2 75 -1 75 2 0 3 -13 21 -28 40 -69 85 -192 249 -192 257 1 4 46
57 100 117 55 60 100 112 100 115 0 3 -30 6 -66 6 l-66 0 -118 -125z"/>
<path d="M5360 2000 l0 -270 65 0 65 0 -2 268 -3 267 -62 3 -63 3 0 -271z"/>
<path d="M5624 2261 c-2 -2 -4 -122 -4 -267 l0 -262 60 -4 60 -3 0 158 c0 86
4 157 8 157 4 0 26 -23 47 -52 61 -79 207 -252 219 -259 6 -4 31 -6 56 -5 l45
1 0 270 0 270 -60 0 -60 0 -5 -158 -5 -159 -80 98 c-190 233 -168 212 -225
216 -29 1 -54 1 -56 -1z"/>
<path d="M6397 2256 c-65 -24 -120 -73 -155 -141 -49 -95 -29 -232 46 -312 57
-61 105 -78 222 -78 93 0 111 3 163 27 l57 27 0 110 0 111 -60 0 -60 0 0 -75
c0 -87 -8 -95 -90 -95 -70 0 -114 21 -146 70 -23 34 -28 53 -28 95 2 103 65
165 166 165 61 0 88 -9 124 -41 20 -19 21 -18 59 21 38 39 38 40 20 60 -10 11
-40 31 -68 45 -42 21 -65 25 -131 25 -45 -1 -98 -7 -119 -14z"/>
<path d="M7098 2263 l-28 -4 0 -265 0 -264 188 0 c175 0 191 2 232 23 61 30
85 76 76 142 -6 38 -16 57 -43 82 l-35 33 26 31 c30 35 35 102 12 147 -29 55
-75 69 -246 75 -85 3 -167 3 -182 0z m282 -102 c35 -10 48 -52 26 -85 -16 -25
-20 -26 -116 -26 l-100 0 0 53 c0 30 3 57 7 60 8 9 150 7 183 -2z m38 -227
c22 -15 29 -57 14 -82 -13 -20 -71 -32 -153 -32 -87 0 -89 2 -89 81 l0 49 103
0 c77 0 108 -4 125 -16z"/>
<path d="M7673 2263 c-10 -3 -13 -50 -13 -182 0 -205 10 -248 68 -303 48 -46
87 -58 184 -58 87 0 133 17 180 67 49 51 58 98 58 294 l0 179 -62 0 -63 0 3
-112 c2 -62 1 -146 -3 -187 -6 -63 -11 -79 -35 -103 -49 -48 -155 -35 -186 23
-10 21 -14 71 -14 202 0 150 -2 176 -16 181 -18 7 -83 7 -101 -1z"/>
<path d="M8548 2263 c-17 -4 -18 -25 -18 -271 l0 -267 195 3 195 3 0 49 0 50
-135 0 -135 0 0 218 0 219 -42 0 c-24 0 -51 -2 -60 -4z"/>
<path d="M9068 2262 l-68 -3 0 -265 0 -266 178 4 c159 3 181 5 217 25 108 58
159 169 135 293 -18 94 -93 175 -185 199 -44 12 -174 18 -277 13z m245 -117
c90 -38 124 -165 65 -248 -32 -45 -90 -67 -180 -67 l-78 0 0 158 c0 87 3 162
7 165 12 13 150 7 186 -8z"/>
<path d="M9887 2263 c-4 -3 -7 -125 -7 -270 l0 -263 65 0 65 0 0 158 1 157 32
-36 c17 -19 76 -90 130 -157 l98 -122 54 0 55 0 0 265 0 265 -60 0 -60 0 0
-155 c0 -85 -3 -155 -7 -155 -5 0 -52 56 -106 123 -152 192 -157 197 -209 197
-25 0 -48 -3 -51 -7z"/>
<path d="M10640 2245 c-66 -31 -104 -66 -133 -120 -18 -32 -22 -57 -22 -130 0
-80 3 -95 28 -137 31 -53 100 -111 154 -129 21 -7 72 -10 127 -7 77 3 99 8
144 33 l52 28 0 109 0 108 -61 0 -60 0 2 -75 c1 -42 -1 -79 -5 -82 -4 -4 -37
-9 -74 -11 -121 -6 -186 57 -180 173 4 72 29 114 84 140 51 24 148 17 192 -13
l31 -23 38 35 38 34 -20 22 c-40 44 -94 63 -190 67 -81 4 -96 1 -145 -22z"/>
<path d="M3090 1995 l0 -265 65 0 65 0 0 75 0 75 83 0 c103 0 148 12 194 53
109 95 72 274 -65 315 -23 7 -104 12 -191 12 l-151 0 0 -265z m299 150 c33
-16 41 -33 41 -80 0 -60 -44 -85 -146 -85 l-64 0 0 90 0 90 70 0 c43 0 82 -6
99 -15z"/>
<path d="M4220 1995 l0 -265 64 0 63 0 -1 73 -1 72 57 3 57 3 48 -75 c48 -75
48 -76 93 -77 25 -1 55 -3 68 -4 12 -1 22 2 22 7 0 5 -25 45 -55 90 l-55 81
30 18 c87 53 103 194 31 273 -51 56 -89 66 -263 66 l-158 0 0 -265z m311 136
c30 -31 37 -67 19 -102 -18 -32 -64 -49 -135 -49 l-65 0 0 90 0 90 76 0 c70 0
78 -2 105 -29z"/>
<path d="M8270 1995 l0 -265 65 0 65 0 0 265 0 265 -65 0 -65 0 0 -265z"/>
<path d="M9630 1995 l0 -265 65 0 65 0 0 265 0 265 -65 0 -65 0 0 -265z"/>
</g>
</svg>
